# xmcd
#
# Track frame offsets: 
#        150
#        14931
#        30807
#        45271
#        59149
#        71715
#        84093
#        97352
#        116652
#        128892
#        142460
#        156359
#
# Disc length: 2237 seconds
#
# Revision: 1
# Processed by: cddbd v1.5.2PL0 Copyright (c) Steve Scherf et al.
# Submitted via: ExactAudioCopyFreeDBPlugin 1.0
#
DISCID=b108bb0c
DTITLE=Dr. John - Desitively Bonnaroo
DYEAR=1974
DGENRE=R&B
TTITLE0=Quitters Never Win
TTITLE1=Stealin'
TTITLE2=What Comes Around (Goes Around)
TTITLE3=Me - You =Loneliness
TTITLE4=Mos' Scocious
TTITLE5=(Everybody Wanna Get Rich) Rite Away
TTITLE6=Let's Make a Better World
TTITLE7=R U 4 Real
TTITLE8=Sing Along Song
TTITLE9=Cant Git Enuff
TTITLE10=Go Tell the People
TTITLE11=Desitively Bonnaroo
EXTD=
EXTT0=
EXTT1=
EXTT2=
EXTT3=
EXTT4=
EXTT5=
EXTT6=
EXTT7=
EXTT8=
EXTT9=
EXTT10=
EXTT11=
PLAYORDER=
